<svg width="76" height="42" viewBox="0 0 76 42" fill="none" xmlns="http://www.w3.org/2000/svg">
<path d="M76 12.7862C76.0012 11.7853 75.6762 10.7982 75.0512 9.90436C74.4262 9.01056 73.5186 8.23508 72.4017 7.64038C71.2847 7.04569 69.9895 6.64841 68.6205 6.48056C67.2515 6.31271 65.8469 6.37897 64.52 6.67402C63.193 6.96907 61.9807 7.48465 60.9808 8.17921C59.9809 8.87378 59.2214 9.72792 58.7634 10.6728C58.3053 11.6177 58.1617 12.6269 58.3439 13.6192C58.5261 14.6114 59.0292 15.5589 59.8125 16.3854L51.3293 23.9171L43.701 11.2798C45.0922 10.4359 46.0898 9.30398 46.5585 8.03762C47.0272 6.77125 46.9443 5.43164 46.3211 4.20036C45.6979 2.96909 44.5645 1.90571 43.0745 1.15435C41.5845 0.402991 39.8101 0 37.9917 0C36.1732 0 34.3988 0.402991 32.9088 1.15435C31.4188 1.90571 30.2854 2.96909 29.6622 4.20036C29.039 5.43164 28.9561 6.77125 29.4248 8.03762C29.8935 9.30398 30.8911 10.4359 32.2823 11.2798L24.6731 23.9102L16.1898 16.3786C17.2796 15.2277 17.8176 13.8516 17.7219 12.46C17.6263 11.0683 16.9022 9.73736 15.66 8.66974C14.4178 7.60213 12.7255 6.85639 10.8409 6.54611C8.95623 6.23582 6.98253 6.37799 5.22037 6.95097C3.45821 7.52394 2.00415 8.49632 1.07964 9.72001C0.155136 10.9437 -0.189156 12.3516 0.0992049 13.7294C0.387565 15.1072 1.29278 16.3793 2.67697 17.3519C4.06117 18.3246 5.8485 18.9445 7.76675 19.1173L12.3519 38.9485C12.5491 39.8011 13.1594 40.5757 14.0743 41.1344C14.9893 41.6932 16.1496 41.9999 17.3488 42H58.6535C59.8527 41.9999 61.013 41.6932 61.928 41.1344C62.8429 40.5757 63.4533 39.8011 63.6504 38.9485L68.2324 19.1265C70.3767 18.9335 72.3494 18.1826 73.7798 17.0151C75.2102 15.8476 75.9997 14.3437 76 12.7862ZM38.0012 3.65684C38.7527 3.65684 39.4874 3.81747 40.1123 4.11841C40.7371 4.41935 41.2242 4.8471 41.5118 5.34755C41.7994 5.848 41.8746 6.39868 41.728 6.92995C41.5814 7.46123 41.2195 7.94923 40.6881 8.33226C40.1567 8.71529 39.4796 8.97613 38.7425 9.08181C38.0054 9.18749 37.2413 9.13325 36.547 8.92596C35.8527 8.71866 35.2592 8.36763 34.8417 7.91723C34.4241 7.46684 34.2013 6.93732 34.2013 6.39564C34.2013 5.66926 34.6016 4.97264 35.3142 4.45902C36.0269 3.94539 36.9934 3.65684 38.0012 3.65684ZM5.06883 12.7862C5.06883 12.2445 5.29169 11.715 5.70923 11.2646C6.12676 10.8142 6.72022 10.4631 7.41456 10.2558C8.1089 10.0486 8.87293 9.99432 9.61003 10.1C10.3471 10.2057 11.0242 10.4665 11.5556 10.8495C12.0871 11.2326 12.449 11.7206 12.5956 12.2519C12.7422 12.7831 12.667 13.3338 12.3793 13.8343C12.0917 14.3347 11.6047 14.7624 10.9798 15.0634C10.3549 15.3643 9.62026 15.525 8.86871 15.525C7.86092 15.525 6.89441 15.2364 6.18179 14.7228C5.46917 14.2092 5.06883 13.5125 5.06883 12.7862ZM67.1336 15.525C66.3821 15.525 65.6474 15.3643 65.0225 15.0634C64.3976 14.7624 63.9106 14.3347 63.623 13.8343C63.3354 13.3338 63.2601 12.7831 63.4067 12.2519C63.5534 11.7206 63.9153 11.2326 64.4467 10.8495C64.9781 10.4665 65.6552 10.2057 66.3923 10.1C67.1294 9.99432 67.8934 10.0486 68.5878 10.2558C69.2821 10.4631 69.8755 10.8142 70.2931 11.2646C70.7106 11.715 70.9335 12.2445 70.9335 12.7862C70.9335 13.5125 70.5331 14.2092 69.8205 14.7228C69.1079 15.2364 68.1414 15.525 67.1336 15.525Z" fill="#DDA15E"/>
</svg>
