<svg width="62" height="62" viewBox="0 0 62 62" fill="none" xmlns="http://www.w3.org/2000/svg">
<path d="M18.3333 21.5L34.1667 37.3333V59.5H18.3333V46.8333M18.3333 59.5H2.5V37.3333L18.3333 21.5M21.5 24.6667V5.66667C21.5 4.82681 21.8336 4.02136 22.4275 3.4275C23.0214 2.83363 23.8268 2.5 24.6667 2.5H56.3333C57.1732 2.5 57.9786 2.83363 58.5725 3.4275C59.1664 4.02136 59.5 4.82681 59.5 5.66667V59.5H34.1667M34.1667 15.1667V15.1983ZM46.8333 15.1667V15.1983ZM46.8333 27.8333V27.865ZM46.8333 40.5V40.5317Z" fill="white"/>
<path d="M34.1667 59.5V37.3333L18.3333 21.5L2.5 37.3333V59.5H18.3333M34.1667 59.5H18.3333M34.1667 59.5H59.5V5.66667C59.5 4.82681 59.1664 4.02136 58.5725 3.4275C57.9786 2.83363 57.1732 2.5 56.3333 2.5H24.6667C23.8268 2.5 23.0214 2.83363 22.4275 3.4275C21.8336 4.02136 21.5 4.82681 21.5 5.66667V24.6667M18.3333 59.5V46.8333M34.1667 15.1667V15.1983M46.8333 15.1667V15.1983M46.8333 27.8333V27.865M46.8333 40.5V40.5317" stroke="#DDA15E" stroke-width="5" stroke-linecap="round" stroke-linejoin="round"/>
</svg>
