<svg width="60" height="60" viewBox="0 0 60 60" fill="none" xmlns="http://www.w3.org/2000/svg">
<path d="M17.3333 20.5L33.1667 36.3333V58.5H17.3333V45.8333M17.3333 58.5H1.5V36.3333L17.3333 20.5M20.5 23.6667V4.66667C20.5 3.82681 20.8336 3.02136 21.4275 2.4275C22.0214 1.83363 22.8268 1.5 23.6667 1.5H55.3333C56.1732 1.5 56.9786 1.83363 57.5725 2.4275C58.1664 3.02136 58.5 3.82681 58.5 4.66667V58.5H33.1667M33.1667 14.1667V14.1983ZM45.8333 14.1667V14.1983ZM45.8333 26.8333V26.865ZM45.8333 39.5V39.5317Z" fill="white"/>
<path d="M33.1667 58.5V36.3333L17.3333 20.5L1.5 36.3333V58.5H17.3333M33.1667 58.5H17.3333M33.1667 58.5H58.5V4.66667C58.5 3.82681 58.1664 3.02136 57.5725 2.4275C56.9786 1.83363 56.1732 1.5 55.3333 1.5H23.6667C22.8268 1.5 22.0214 1.83363 21.4275 2.4275C20.8336 3.02136 20.5 3.82681 20.5 4.66667V23.6667M17.3333 58.5V45.8333M33.1667 14.1667V14.1983M45.8333 14.1667V14.1983M45.8333 26.8333V26.865M45.8333 39.5V39.5317" stroke="#DDA15E" stroke-width="3" stroke-linecap="round" stroke-linejoin="round"/>
</svg>
