<svg width="55" height="64" viewBox="0 0 55 64" fill="none" xmlns="http://www.w3.org/2000/svg">
<path d="M20.9211 2.5V8.71053M31.4474 2.5V8.71053M36.7105 21.1316C37.4085 21.1316 38.0778 21.4587 38.5713 22.0411C39.0649 22.6234 39.3421 23.4133 39.3421 24.2368V49.0789C39.3421 52.3732 38.2331 55.5326 36.259 57.862C34.285 60.1914 31.6075 61.5 28.8158 61.5H13.0263C10.2346 61.5 7.55715 60.1914 5.58309 57.862C3.60902 55.5326 2.5 52.3732 2.5 49.0789V24.2368C2.5 23.4133 2.77725 22.6234 3.27077 22.0411C3.76429 21.4587 4.43364 21.1316 5.13158 21.1316H41.9737C44.7654 21.1316 47.4428 22.4402 49.4169 24.7696C51.391 27.099 52.5 30.2584 52.5 33.5526C52.5 36.8469 51.391 40.0062 49.4169 42.3356C47.4428 44.665 44.7654 45.9737 41.9737 45.9737H39.3421M10.3947 2.5V8.71053" stroke="#DDA15E" stroke-width="5" stroke-linecap="round" stroke-linejoin="round"/>
</svg>
