<svg width="64" height="84" viewBox="0 0 64 84" fill="none" xmlns="http://www.w3.org/2000/svg">
<path d="M29.05 63.3333L34.95 72.0233C35.5311 72.8792 36.221 73.5582 36.9802 74.0214C37.7394 74.4846 38.5532 74.723 39.375 74.723C40.1968 74.723 41.0105 74.4846 41.7698 74.0214C42.529 73.5582 43.2189 72.8792 43.8 72.0233C44.3811 71.1674 44.842 70.1514 45.1565 69.0331C45.471 67.9148 45.6329 66.7162 45.6329 65.5058C45.6329 64.2954 45.471 63.0968 45.1565 61.9785C44.842 60.8603 44.3811 59.8442 43.8 58.9883" fill="white"/>
<path d="M29.05 63.3333L34.95 72.0233C35.5311 72.8792 36.221 73.5582 36.9802 74.0214C37.7394 74.4846 38.5532 74.723 39.375 74.723C40.1968 74.723 41.0105 74.4846 41.7698 74.0214C42.529 73.5582 43.2189 72.8792 43.8 72.0233C44.3811 71.1674 44.842 70.1514 45.1565 69.0331C45.471 67.9148 45.6329 66.7162 45.6329 65.5058C45.6329 64.2954 45.471 63.0968 45.1565 61.9785C44.842 60.8603 44.3811 59.8442 43.8 58.9883" stroke="#DDA15E" stroke-width="5" stroke-linecap="round" stroke-linejoin="round"/>
<path d="M37.9 50.2984L45.275 61.161C46.4486 62.8895 48.0403 63.8606 49.7 63.8606C51.3597 63.8606 52.9514 62.8895 54.125 61.161C55.2986 59.4324 55.9579 57.088 55.9579 54.6434C55.9579 52.1989 55.2986 49.8544 54.125 48.1259L42.679 31.2672C41.0196 28.8262 38.7702 27.4551 36.425 27.4551C34.0797 27.4551 31.8304 28.8262 30.171 31.2672L27.575 35.0908C26.4014 36.8194 24.8097 37.7905 23.15 37.7905C21.4903 37.7905 19.8986 36.8194 18.725 35.0908C17.5514 33.3623 16.8921 31.0178 16.8921 28.5733C16.8921 26.1287 17.5514 23.7843 18.725 22.0558L27.0145 9.84625C29.7056 5.89291 33.2151 3.37457 36.9874 2.68988C40.7597 2.0052 44.5793 3.19329 47.8415 6.06608L49.228 7.28269C50.4841 8.3993 51.9775 8.78657 53.417 8.36894L58.55 6.84819" fill="white"/>
<path d="M37.9 50.2984L45.275 61.161C46.4486 62.8895 48.0403 63.8606 49.7 63.8606C51.3597 63.8606 52.9514 62.8895 54.125 61.161C55.2986 59.4324 55.9579 57.088 55.9579 54.6434C55.9579 52.1989 55.2986 49.8544 54.125 48.1259L42.679 31.2672C41.0196 28.8262 38.7702 27.4551 36.425 27.4551C34.0797 27.4551 31.8304 28.8262 30.171 31.2672L27.575 35.0908C26.4014 36.8194 24.8097 37.7905 23.15 37.7905C21.4903 37.7905 19.8986 36.8194 18.725 35.0908C17.5514 33.3623 16.8921 31.0178 16.8921 28.5733C16.8921 26.1287 17.5514 23.7843 18.725 22.0558L27.0145 9.84625C29.7056 5.89291 33.2151 3.37457 36.9874 2.68988C40.7597 2.0052 44.5793 3.19329 47.8415 6.06608L49.228 7.28269C50.4841 8.3993 51.9775 8.78657 53.417 8.36894L58.55 6.84819" stroke="#DDA15E" stroke-width="5" stroke-linecap="round" stroke-linejoin="round"/>
<path d="M58.55 2.50391L61.5 50.2991H55.6M5.45 2.50391L2.5 50.2991L21.675 78.5418C22.8486 80.2703 24.4403 81.2414 26.1 81.2414C27.7597 81.2414 29.3514 80.2703 30.525 78.5418C31.6986 76.8132 32.3579 74.4688 32.3579 72.0242C32.3579 69.5797 31.6986 67.2353 30.525 65.5067M5.45 6.84893H29.05Z" fill="white"/>
<path d="M58.55 2.50391L61.5 50.2991H55.6M5.45 2.50391L2.5 50.2991L21.675 78.5418C22.8486 80.2703 24.4403 81.2414 26.1 81.2414C27.7597 81.2414 29.3514 80.2703 30.525 78.5418C31.6986 76.8132 32.3579 74.4688 32.3579 72.0242C32.3579 69.5797 31.6986 67.2353 30.525 65.5067M5.45 6.84893H29.05" stroke="#DDA15E" stroke-width="5" stroke-linecap="round" stroke-linejoin="round"/>
</svg>
