<svg width="62" height="82" viewBox="0 0 62 82" fill="none" xmlns="http://www.w3.org/2000/svg">
<path d="M28.05 62.3323L33.95 71.0224C34.5311 71.8783 35.221 72.5572 35.9802 73.0204C36.7394 73.4836 37.5532 73.722 38.375 73.722C39.1968 73.722 40.0105 73.4836 40.7698 73.0204C41.529 72.5572 42.2189 71.8783 42.8 71.0224C43.3811 70.1665 43.842 69.1504 44.1565 68.0321C44.471 66.9138 44.6329 65.7153 44.6329 64.5048C44.6329 63.2944 44.471 62.0959 44.1565 60.9776C43.842 59.8593 43.3811 58.8432 42.8 57.9873" fill="white"/>
<path d="M28.05 62.3323L33.95 71.0224C34.5311 71.8783 35.221 72.5572 35.9802 73.0204C36.7394 73.4836 37.5532 73.722 38.375 73.722C39.1968 73.722 40.0105 73.4836 40.7698 73.0204C41.529 72.5572 42.2189 71.8783 42.8 71.0224C43.3811 70.1665 43.842 69.1504 44.1565 68.0321C44.471 66.9138 44.6329 65.7153 44.6329 64.5048C44.6329 63.2944 44.471 62.0959 44.1565 60.9776C43.842 59.8593 43.3811 58.8432 42.8 57.9873" stroke="#DDA15E" stroke-width="3" stroke-linecap="round" stroke-linejoin="round"/>
<path d="M36.9 49.2974L44.275 60.16C45.4486 61.8885 47.0403 62.8596 48.7 62.8596C50.3597 62.8596 51.9514 61.8885 53.125 60.16C54.2986 58.4314 54.9579 56.087 54.9579 53.6424C54.9579 51.1979 54.2986 48.8535 53.125 47.1249L41.679 30.2662C40.0196 27.8252 37.7702 26.4541 35.425 26.4541C33.0797 26.4541 30.8304 27.8252 29.171 30.2662L26.575 34.0899C25.4014 35.8184 23.8097 36.7895 22.15 36.7895C20.4903 36.7895 18.8986 35.8184 17.725 34.0899C16.5514 32.3613 15.8921 30.0169 15.8921 27.5723C15.8921 25.1278 16.5514 22.7833 17.725 21.0548L26.0145 8.84527C28.7056 4.89193 32.2151 2.37359 35.9874 1.6889C39.7597 1.00422 43.5793 2.19231 46.8415 5.06511L48.228 6.28171C49.4841 7.39832 50.9775 7.7856 52.417 7.36797L57.55 5.84721" fill="white"/>
<path d="M36.9 49.2974L44.275 60.16C45.4486 61.8885 47.0403 62.8596 48.7 62.8596C50.3597 62.8596 51.9514 61.8885 53.125 60.16C54.2986 58.4314 54.9579 56.087 54.9579 53.6424C54.9579 51.1979 54.2986 48.8535 53.125 47.1249L41.679 30.2662C40.0196 27.8252 37.7702 26.4541 35.425 26.4541C33.0797 26.4541 30.8304 27.8252 29.171 30.2662L26.575 34.0899C25.4014 35.8184 23.8097 36.7895 22.15 36.7895C20.4903 36.7895 18.8986 35.8184 17.725 34.0899C16.5514 32.3613 15.8921 30.0169 15.8921 27.5723C15.8921 25.1278 16.5514 22.7833 17.725 21.0548L26.0145 8.84527C28.7056 4.89193 32.2151 2.37359 35.9874 1.6889C39.7597 1.00422 43.5793 2.19231 46.8415 5.06511L48.228 6.28171C49.4841 7.39832 50.9775 7.7856 52.417 7.36797L57.55 5.84721" stroke="#DDA15E" stroke-width="3" stroke-linecap="round" stroke-linejoin="round"/>
<path d="M57.55 1.50293L60.5 49.2982H54.6M4.45 1.50293L1.5 49.2982L20.675 77.5408C21.8486 79.2693 23.4403 80.2404 25.1 80.2404C26.7597 80.2404 28.3514 79.2693 29.525 77.5408C30.6986 75.8122 31.3579 73.4678 31.3579 71.0233C31.3579 68.5787 30.6986 66.2343 29.525 64.5057M4.45 5.84795H28.05Z" fill="white"/>
<path d="M57.55 1.50293L60.5 49.2982H54.6M4.45 1.50293L1.5 49.2982L20.675 77.5408C21.8486 79.2693 23.4403 80.2404 25.1 80.2404C26.7597 80.2404 28.3514 79.2693 29.525 77.5408C30.6986 75.8122 31.3579 73.4678 31.3579 71.0233C31.3579 68.5787 30.6986 66.2343 29.525 64.5057M4.45 5.84795H28.05" stroke="#DDA15E" stroke-width="3" stroke-linecap="round" stroke-linejoin="round"/>
</svg>
