<svg width="279" height="134" viewBox="0 0 279 134" fill="none" xmlns="http://www.w3.org/2000/svg">
<path d="M159 20.7862C159.001 19.7853 158.676 18.7982 158.051 17.9044C157.426 17.0106 156.519 16.2351 155.402 15.6404C154.285 15.0457 152.99 14.6484 151.621 14.4806C150.252 14.3127 148.847 14.379 147.52 14.674C146.193 14.9691 144.981 15.4846 143.981 16.1792C142.981 16.8738 142.221 17.7279 141.763 18.6728C141.305 19.6177 141.162 20.6269 141.344 21.6192C141.526 22.6114 142.029 23.5589 142.812 24.3854L134.329 31.9171L126.701 19.2798C128.092 18.4359 129.09 17.304 129.558 16.0376C130.027 14.7712 129.944 13.4316 129.321 12.2004C128.698 10.9691 127.564 9.90571 126.075 9.15435C124.585 8.40299 122.81 8 120.992 8C119.173 8 117.399 8.40299 115.909 9.15435C114.419 9.90571 113.285 10.9691 112.662 12.2004C112.039 13.4316 111.956 14.7712 112.425 16.0376C112.893 17.304 113.891 18.4359 115.282 19.2798L107.673 31.9102L99.1898 24.3786C100.28 23.2277 100.818 21.8516 100.722 20.46C100.626 19.0683 99.9022 17.7374 98.66 16.6697C97.4178 15.6021 95.7255 14.8564 93.8409 14.5461C91.9562 14.2358 89.9825 14.378 88.2204 14.951C86.4582 15.5239 85.0042 16.4963 84.0796 17.72C83.1551 18.9437 82.8108 20.3516 83.0992 21.7294C83.3876 23.1072 84.2928 24.3793 85.677 25.3519C87.0612 26.3246 88.8485 26.9445 90.7667 27.1173L95.3519 46.9485C95.5491 47.8011 96.1594 48.5757 97.0743 49.1344C97.9893 49.6932 99.1496 49.9999 100.349 50H141.654C142.853 49.9999 144.013 49.6932 144.928 49.1344C145.843 48.5757 146.453 47.8011 146.65 46.9485L151.232 27.1265C153.377 26.9335 155.349 26.1826 156.78 25.0151C158.21 23.8476 159 22.3437 159 20.7862ZM121.001 11.6568C121.753 11.6568 122.487 11.8175 123.112 12.1184C123.737 12.4194 124.224 12.8471 124.512 13.3475C124.799 13.848 124.875 14.3987 124.728 14.93C124.581 15.4612 124.22 15.9492 123.688 16.3323C123.157 16.7153 122.48 16.9761 121.742 17.0818C121.005 17.1875 120.241 17.1333 119.547 16.926C118.853 16.7187 118.259 16.3676 117.842 15.9172C117.424 15.4668 117.201 14.9373 117.201 14.3956C117.201 13.6693 117.602 12.9726 118.314 12.459C119.027 11.9454 119.993 11.6568 121.001 11.6568ZM88.0688 20.7862C88.0688 20.2445 88.2917 19.715 88.7092 19.2646C89.1268 18.8142 89.7202 18.4631 90.4146 18.2558C91.1089 18.0486 91.8729 17.9943 92.61 18.1C93.3471 18.2057 94.0242 18.4665 94.5556 18.8495C95.0871 19.2326 95.449 19.7206 95.5956 20.2519C95.7422 20.7831 95.667 21.3338 95.3793 21.8343C95.0917 22.3347 94.6047 22.7624 93.9798 23.0634C93.3549 23.3643 92.6203 23.525 91.8687 23.525C90.8609 23.525 89.8944 23.2364 89.1818 22.7228C88.4692 22.2092 88.0688 21.5125 88.0688 20.7862ZM150.134 23.525C149.382 23.525 148.647 23.3643 148.023 23.0634C147.398 22.7624 146.911 22.3347 146.623 21.8343C146.335 21.3338 146.26 20.7831 146.407 20.2519C146.553 19.7206 146.915 19.2326 147.447 18.8495C147.978 18.4665 148.655 18.2057 149.392 18.1C150.129 17.9943 150.893 18.0486 151.588 18.2558C152.282 18.4631 152.876 18.8142 153.293 19.2646C153.711 19.715 153.933 20.2445 153.933 20.7862C153.933 21.5125 153.533 22.2092 152.821 22.7228C152.108 23.2364 151.141 23.525 150.134 23.525Z" fill="#DDA15E"/>
<path d="M7.92 100.56C7.92 101.776 8.096 102.72 8.448 103.392C8.832 104.032 9.312 104.352 9.888 104.352C10.208 104.352 10.512 104.336 10.8 104.304C11.088 104.24 11.376 104.208 11.664 104.208C11.984 104.208 12.256 104.368 12.48 104.688C12.736 105.008 12.864 105.36 12.864 105.744C12.864 106.512 12.496 107.12 11.76 107.568C11.056 107.984 10.096 108.192 8.88 108.192C8.016 108.192 7.136 107.936 6.24 107.424C5.376 106.88 4.656 106.048 4.08 104.928C3.504 103.776 3.216 102.352 3.216 100.656C3.216 97.008 3.28 93.92 3.408 91.392C3.568 88.384 3.648 84.592 3.648 80.016C3.648 78.576 3.728 77.568 3.888 76.992C4.08 76.544 4.384 76.208 4.8 75.984C5.248 75.728 5.712 75.6 6.192 75.6C6.672 75.6 7.088 75.68 7.44 75.84C7.824 76 8.08 76.256 8.208 76.608C8.336 76.992 8.416 77.376 8.448 77.76C8.512 78.112 8.544 78.624 8.544 79.296C8.544 80.608 8.496 81.872 8.4 83.088C8.336 84.56 8.304 85.632 8.304 86.304C8.048 91.936 7.92 96.688 7.92 100.56ZM37.9778 105.696C37.9778 106.4 37.5938 106.992 36.8258 107.472C36.0898 107.952 35.4018 108.192 34.7618 108.192C33.5458 108.192 32.5698 108.048 31.8338 107.76C31.1298 107.44 30.4738 106.864 29.8658 106.032C29.0338 106.768 27.8978 107.328 26.4578 107.712C25.0178 108.064 23.6898 108.24 22.4738 108.24C20.4898 108.24 18.8578 107.712 17.5778 106.656C16.2978 105.568 15.6578 103.984 15.6578 101.904C15.6578 101.008 15.8978 100.192 16.3778 99.456C16.8578 98.688 17.5138 98.016 18.3458 97.44C19.2738 96.832 20.3298 96.368 21.5138 96.048C22.6978 95.696 23.9298 95.52 25.2098 95.52C25.8818 95.52 26.6818 95.648 27.6098 95.904C28.5378 96.16 29.2578 96.432 29.7698 96.72V95.952C29.7698 94.224 29.3538 93.04 28.5218 92.4C27.6898 91.728 26.3458 91.392 24.4898 91.392C23.9458 91.392 23.4018 91.504 22.8578 91.728C22.3458 91.952 21.7538 92.256 21.0818 92.64C20.1858 93.12 19.3378 93.36 18.5378 93.36C18.2498 93.36 17.9778 93.168 17.7218 92.784C17.4658 92.368 17.3378 92 17.3378 91.68C17.3378 90.752 17.7698 89.952 18.6338 89.28C19.5298 88.608 20.5858 88.112 21.8018 87.792C23.0178 87.44 24.1058 87.264 25.0658 87.264C26.0258 87.264 27.1298 87.456 28.3778 87.84C29.6258 88.192 30.6498 88.688 31.4498 89.328C32.4098 90.16 33.1458 91.136 33.6578 92.256C34.2018 93.344 34.4738 94.544 34.4738 95.856C34.4738 96.272 34.4418 96.896 34.3778 97.728C34.3138 98.624 34.2818 99.392 34.2818 100.032C34.2818 100.32 34.2498 100.752 34.1858 101.328C34.1218 102.032 34.0898 102.592 34.0898 103.008C34.0898 103.392 34.2338 103.728 34.5218 104.016C34.8098 104.272 35.1458 104.4 35.5298 104.4L36.8738 104.352C37.2258 104.352 37.4978 104.48 37.6898 104.736C37.8818 104.992 37.9778 105.312 37.9778 105.696ZM22.5218 104.448C23.8978 104.448 25.0498 104.304 25.9778 104.016C26.9058 103.728 28.0258 103.2 29.3378 102.432C29.4658 101.888 29.5458 101.168 29.5778 100.272C27.8178 99.44 26.3618 99.024 25.2098 99.024C23.8978 99.024 22.7298 99.264 21.7058 99.744C20.6818 100.224 20.1698 101.072 20.1698 102.288C20.1698 102.896 20.4258 103.408 20.9378 103.824C21.4498 104.24 21.9778 104.448 22.5218 104.448Z" fill="#DDA15E"/>
<path d="M159.408 64.016C159.408 69.0507 158.512 73.5733 156.72 77.584C155.013 81.5093 152.795 84.9653 150.064 87.952C147.419 90.9387 144.645 93.584 141.744 95.888C138.331 98.5333 134.064 99.856 128.944 99.856C127.323 99.856 126.171 99.8133 125.488 99.728C124.805 99.5573 124.336 99.216 124.08 98.704C123.824 98.192 123.483 97.296 123.056 96.016C122.971 95.76 122.928 95.376 122.928 94.864C122.928 94.1813 123.056 93.6693 123.312 93.328C123.653 92.9867 123.995 93.1573 124.336 93.84C124.763 94.9493 125.275 95.7173 125.872 96.144C126.469 96.4853 127.493 96.656 128.944 96.656C131.163 96.656 132.955 96.2293 134.32 95.376C135.771 94.4373 137.179 93.456 138.544 92.432C141.275 90.384 143.835 88.0373 146.224 85.392C148.699 82.6613 150.704 79.504 152.24 75.92C153.776 72.336 154.544 68.24 154.544 63.632C154.544 60.3893 153.733 57.6587 152.112 55.44C150.491 53.2213 148.315 51.472 145.584 50.192C142.853 48.8267 139.867 47.8453 136.624 47.248C133.381 46.6507 130.139 46.352 126.896 46.352C125.531 46.352 124.123 46.4373 122.672 46.608C121.307 46.7787 119.984 46.9493 118.704 47.12C114.352 47.4613 110.811 47.9307 108.08 48.528C105.435 49.1253 103.173 50.064 101.296 51.344C99.4187 52.5387 97.5413 54.288 95.664 56.592C94.64 57.7867 94 59.5787 93.744 61.968C93.488 64.3573 93.36 66.5333 93.36 68.496C93.36 72.1653 93.744 74.9387 94.512 76.816C95.28 78.6933 97.2427 79.632 100.4 79.632C101.595 79.632 103.088 79.248 104.88 78.48C106.672 77.6267 108.421 76.6027 110.128 75.408C111.92 74.128 113.243 72.8053 114.096 71.44C114.693 70.5013 115.376 70.032 116.144 70.032C116.741 70.032 117.04 70.4587 117.04 71.312C117.04 71.9947 116.741 73.0613 116.144 74.512C115.888 75.1093 115.12 75.8773 113.84 76.816C112.645 77.7547 111.195 78.6933 109.488 79.632C107.781 80.4853 106.075 81.2107 104.368 81.808C102.747 82.4053 101.424 82.704 100.4 82.704C97.7547 82.704 95.408 81.936 93.36 80.4C91.312 78.864 89.6907 76.816 88.496 74.256C87.3867 71.696 86.832 68.9227 86.832 65.936C86.832 63.376 87.6 61.2427 89.136 59.536C90.672 57.744 91.9947 56.1653 93.104 54.8C96.2613 51.0453 100.016 48.0587 104.368 45.84C108.805 43.6213 114.523 42.256 121.52 41.744C122.971 41.5733 124.379 41.4453 125.744 41.36C127.109 41.2747 128.475 41.232 129.84 41.232C134.875 41.232 139.611 42.128 144.048 43.92C148.571 45.6267 152.24 48.1867 155.056 51.6C157.957 54.928 159.408 59.0667 159.408 64.016ZM135.472 49.808C135.557 49.808 135.643 49.808 135.728 49.808C135.813 49.7227 135.899 49.68 135.984 49.68C136.411 49.68 136.624 49.8933 136.624 50.32C136.624 51.1733 136.027 51.8133 134.832 52.24C132.016 52.9227 130.011 54.0747 128.816 55.696C127.707 57.232 126.683 59.3227 125.744 61.968C124.464 65.7227 123.568 69.2213 123.056 72.464C122.544 75.6213 122.203 78.864 122.032 82.192C121.861 85.52 121.605 89.3173 121.264 93.584C120.923 98.3627 120.155 103.099 118.96 107.792C117.851 112.485 116.229 116.752 114.096 120.592C111.963 124.347 109.232 127.376 105.904 129.68C102.576 131.984 98.5227 133.136 93.744 133.136C90.928 133.136 88.2827 132.112 85.808 130.064C83.3333 128.016 81.328 125.413 79.792 122.256C78.3413 119.184 77.616 116.155 77.616 113.168C77.616 110.693 78.128 108.603 79.152 106.896C80.176 105.104 81.0293 103.397 81.712 101.776C83.1627 99.472 84.784 97.2533 86.576 95.12C88.4533 92.9013 90.6293 91.1093 93.104 89.744C95.5787 88.2933 98.4373 87.568 101.68 87.568C105.691 87.568 108.379 88.6347 109.744 90.768C111.109 92.9013 111.792 95.8453 111.792 99.6C111.792 104.037 110.555 107.451 108.08 109.84C105.605 112.229 102.107 113.424 97.584 113.424C96.2187 113.424 95.0667 112.997 94.128 112.144C93.1893 111.205 92.72 110.011 92.72 108.56C92.72 107.365 93.0187 106.555 93.616 106.128C94.2987 105.701 94.9813 105.317 95.664 104.976C95.8347 104.891 96.048 104.848 96.304 104.848C96.7307 104.848 97.1147 105.061 97.456 105.488C97.7973 105.829 97.968 106.213 97.968 106.64C97.968 107.237 97.6693 107.579 97.072 107.664C96.816 107.749 96.5173 107.835 96.176 107.92C95.8347 107.92 95.664 108.133 95.664 108.56C95.664 109.755 96.304 110.352 97.584 110.352C105.008 110.352 108.72 106.768 108.72 99.6C108.72 96.9547 108.293 94.8213 107.44 93.2C106.587 91.4933 104.667 90.64 101.68 90.64C98.864 90.64 96.3893 91.28 94.256 92.56C92.1227 93.84 90.288 95.4613 88.752 97.424C87.216 99.3867 85.8507 101.392 84.656 103.44C83.8027 104.805 82.9493 106.213 82.096 107.664C81.2427 109.115 80.816 110.949 80.816 113.168C80.816 115.643 81.2 118.203 81.968 120.848C82.8213 123.408 84.0587 125.584 85.68 127.376C87.3013 129.168 89.2213 130.064 91.44 130.064C95.8773 130.064 99.5467 129.04 102.448 126.992C105.435 124.944 107.781 122.213 109.488 118.8C111.195 115.387 112.475 111.547 113.328 107.28C114.267 102.928 114.907 98.5333 115.248 94.096C115.76 87.696 116.571 81.9787 117.68 76.944C118.875 71.9093 120.453 66.5333 122.416 60.816C123.525 57.5733 125.104 55.1413 127.152 53.52C129.285 51.8987 132.059 50.6613 135.472 49.808ZM164.614 119.44C164.614 120.165 164.337 120.805 163.782 121.36C163.227 121.915 162.545 122.192 161.734 122.192C160.454 122.192 159.515 121.957 158.918 121.488C158.321 120.976 158.022 120.059 158.022 118.736C158.022 117.157 157.979 115.088 157.894 112.528C157.809 110.395 157.766 108.603 157.766 107.152C157.766 106.469 157.809 105.573 157.894 104.464C157.979 103.44 158.022 102.672 158.022 102.16C157.894 101.349 157.574 100.688 157.062 100.176C156.55 99.6213 155.889 99.344 155.078 99.344C154.694 99.344 154.374 99.1733 154.118 98.832C153.862 98.448 153.734 98.064 153.734 97.68C153.734 96.6987 154.118 95.952 154.886 95.44C155.697 94.928 156.657 94.672 157.766 94.672C160.07 94.672 161.67 96.0373 162.566 98.768C163.675 97.488 164.934 96.464 166.342 95.696C167.793 94.8853 169.179 94.48 170.502 94.48C172.081 94.48 173.51 94.9067 174.79 95.76C176.113 96.6133 176.774 97.7653 176.774 99.216C176.774 100.027 176.411 100.859 175.686 101.712C175.003 102.565 174.299 102.992 173.574 102.992C173.19 102.992 172.849 102.907 172.55 102.736C172.294 102.523 171.974 102.224 171.59 101.84C171.163 101.413 170.801 101.115 170.502 100.944C170.203 100.731 169.862 100.624 169.478 100.624C168.795 100.624 168.155 100.731 167.558 100.944C166.961 101.157 166.555 101.413 166.342 101.712C165.659 102.779 165.147 103.739 164.806 104.592C164.507 105.445 164.358 106.363 164.358 107.344C164.358 108.069 164.337 108.645 164.294 109.072L164.23 112.72C164.23 113.275 164.251 113.893 164.294 114.576C164.337 115.259 164.379 115.771 164.422 116.112C164.55 117.264 164.614 118.373 164.614 119.44ZM183.844 80.912C185.337 81.04 186.638 81.4453 187.748 82.128C188.857 82.768 189.412 83.7493 189.412 85.072C189.412 86.0533 188.942 86.8427 188.004 87.44C187.108 87.9947 186.02 88.272 184.74 88.272C183.502 88.272 182.649 87.952 182.18 87.312C181.71 86.672 181.476 86.0107 181.476 85.328C181.476 84.048 181.604 82.9813 181.86 82.128C182.158 81.2747 182.82 80.8693 183.844 80.912ZM188.964 109.264V111.12C188.964 112.784 189.006 114.363 189.092 115.856C189.22 117.307 189.369 118.779 189.54 120.272C189.497 120.699 189.177 121.147 188.58 121.616C187.982 122.043 187.449 122.256 186.98 122.256C186.169 122.256 185.337 122.107 184.484 121.808C183.673 121.467 183.182 121.061 183.012 120.592C182.756 119.227 182.628 118.011 182.628 116.944C182.628 113.445 182.521 109.52 182.308 105.168C182.137 101.328 182.052 98.64 182.052 97.104C182.052 96.336 182.436 95.6747 183.204 95.12C183.972 94.5653 184.782 94.288 185.635 94.288C186.873 94.288 187.726 94.5653 188.196 95.12C188.708 95.6747 188.964 96.5493 188.964 97.744V109.264ZM196.891 99.984C195.824 99.088 195.291 98.0427 195.291 96.848C195.291 96.2507 195.589 95.7173 196.187 95.248C196.784 94.736 197.509 94.48 198.363 94.48C199.899 94.48 201.157 94.8853 202.139 95.696C203.12 96.5067 203.973 97.68 204.699 99.216C205.595 97.552 206.725 96.336 208.091 95.568C209.499 94.7573 211.269 94.352 213.403 94.352C214.683 94.352 215.707 94.5227 216.475 94.864C217.285 95.1627 217.947 95.6107 218.459 96.208C218.971 96.7627 219.611 97.616 220.379 98.768C221.488 97.4027 222.875 96.336 224.539 95.568C226.245 94.8 227.995 94.416 229.787 94.416C231.877 94.416 233.776 95.2907 235.483 97.04C237.232 98.7893 238.405 100.773 239.003 102.992C239.216 103.931 239.365 106.149 239.451 109.648L239.707 113.36C239.92 115.621 240.645 116.965 241.883 117.392C242.48 117.563 242.971 117.776 243.355 118.032C243.781 118.245 243.995 118.48 243.995 118.736C244.08 119.76 243.845 120.507 243.291 120.976C242.907 121.232 242.373 121.509 241.691 121.808C241.008 122.107 240.475 122.256 240.091 122.256C237.787 122.256 236.144 121.424 235.163 119.76C234.523 118.651 234.117 117.392 233.947 115.984C233.776 114.533 233.691 112.571 233.691 110.096C233.691 107.451 233.371 105.189 232.731 103.312C232.091 101.392 230.64 100.432 228.379 100.432C227.568 100.432 226.757 100.688 225.947 101.2C225.179 101.669 224.624 102.267 224.283 102.992C223.685 104.144 223.28 105.403 223.067 106.768C222.853 108.091 222.747 109.627 222.747 111.376C222.747 112.485 222.811 113.616 222.939 114.768C222.939 115.109 222.96 115.664 223.003 116.432C223.088 117.157 223.131 117.819 223.131 118.416C223.131 119.483 222.917 120.4 222.491 121.168C222.107 121.893 221.424 122.256 220.443 122.256C218.096 122.256 216.859 121.019 216.731 118.544C216.731 116.795 216.752 115.856 216.795 115.728V112.976C216.795 111.44 216.731 109.947 216.603 108.496C216.475 107.045 216.325 105.957 216.155 105.232C215.771 103.824 215.259 102.736 214.619 101.968C213.979 101.2 212.997 100.816 211.675 100.816C210.779 100.816 209.947 101.029 209.179 101.456C208.411 101.883 207.749 102.48 207.195 103.248C206.384 104.528 205.851 106.085 205.595 107.92C205.339 110.267 205.147 112.123 205.019 113.488C204.933 114.811 204.891 116.347 204.891 118.096C204.891 119.333 204.677 120.336 204.251 121.104C203.867 121.872 203.12 122.256 202.01 122.256C201.2 122.256 200.347 122.043 199.451 121.616C198.597 121.147 198.171 120.528 198.171 119.76C198.171 118.949 198.256 118.139 198.427 117.328C198.811 114.896 199.003 110.757 199.003 104.912C199.003 103.973 198.789 103.056 198.363 102.16C197.979 101.221 197.488 100.496 196.891 99.984ZM272.775 122.256C271.324 122.256 270.215 122.043 269.447 121.616C268.679 121.147 267.847 120.293 266.951 119.056C265.841 120.037 264.177 120.827 261.958 121.424C259.783 122.021 257.905 122.32 256.327 122.32C253.724 122.32 251.612 121.616 249.991 120.208C248.412 118.757 247.623 116.645 247.623 113.872C247.623 112.677 247.943 111.589 248.583 110.608C249.265 109.584 250.14 108.688 251.207 107.92C252.401 107.109 253.809 106.469 255.431 106C257.095 105.531 258.609 105.296 259.975 105.296C262.279 105.296 264.327 105.509 266.119 105.936V105.872C266.119 103.568 265.543 101.989 264.391 101.136C263.281 100.24 261.489 99.792 259.015 99.792C257.436 99.792 256.071 100.496 254.919 101.904C254.492 102.459 253.596 102.736 252.231 102.736C251.548 102.736 251.036 102.459 250.695 101.904C250.396 101.307 250.247 100.709 250.247 100.112C250.247 98.8747 250.759 97.808 251.783 96.912C252.849 96.016 254.129 95.3547 255.623 94.928C257.116 94.4587 258.503 94.224 259.783 94.224C261.02 94.224 262.492 94.48 264.199 94.992C265.905 95.504 267.292 96.1867 268.359 97.04C269.639 98.1493 270.62 99.4507 271.303 100.944C272.028 102.395 272.391 103.995 272.391 105.744C272.391 106.299 272.348 107.131 272.263 108.24C272.177 109.52 272.135 110.565 272.135 111.376C272.135 111.76 272.092 112.251 272.007 112.848C271.921 113.616 271.879 114.256 271.879 114.768C271.879 115.323 272.049 115.856 272.391 116.368C272.732 116.88 273.201 117.307 273.799 117.648C274.353 117.947 274.716 118.267 274.887 118.608C275.057 118.949 275.143 119.333 275.143 119.76C275.143 120.187 274.865 120.72 274.311 121.36C273.799 121.957 273.287 122.256 272.775 122.256ZM259.975 110.032C258.311 110.032 256.839 110.352 255.559 110.992C254.279 111.632 253.639 112.763 253.639 114.384C253.639 115.195 253.916 115.877 254.47 116.432C255.068 116.987 255.708 117.264 256.391 117.264C258.225 117.264 259.761 117.072 260.999 116.688C262.236 116.304 263.729 115.6 265.479 114.576C265.692 113.893 265.82 112.933 265.863 111.696C265.863 111.227 265.884 110.864 265.927 110.608C263.623 110.224 261.639 110.032 259.975 110.032Z" fill="#DDA15E"/>
</svg>
