<svg width="66" height="57" viewBox="0 0 66 57" fill="none" xmlns="http://www.w3.org/2000/svg">
<path d="M27.3149 7.54064H8.51854C6.5245 7.54064 4.61213 8.22138 3.20213 9.4331C1.79213 10.6448 1 12.2883 1 14.0019V49.5388C1 51.2524 1.79213 52.8958 3.20213 54.1075C4.61213 55.3193 6.5245 56 8.51854 56H49.8705C51.8646 56 53.7769 55.3193 55.1869 54.1075C56.5969 52.8958 57.3891 51.2524 57.3891 49.5388V33.3856M52.0735 2.97254C52.767 2.35543 53.5966 1.8632 54.5139 1.52457C55.4312 1.18594 56.4178 1.0077 57.4161 1.00024C58.4144 0.992789 59.4045 1.15627 60.3285 1.48115C61.2525 1.80602 62.0919 2.28579 62.7979 2.89246C63.5038 3.49912 64.0621 4.22053 64.4401 5.01459C64.8182 5.80866 65.0084 6.65947 64.9997 7.51739C64.991 8.37531 64.7836 9.22316 64.3896 10.0115C63.9956 10.7998 63.4228 11.5127 62.7047 12.1087L30.4276 39.8469H19.7964V30.7107L52.0735 2.97254Z" stroke="#DDA15E" stroke-width="2" stroke-linecap="round" stroke-linejoin="round"/>
</svg>
