<svg width="68" height="54" viewBox="0 0 68 54" fill="none" xmlns="http://www.w3.org/2000/svg">
<path d="M7.76923 39.6668C2.69231 43.0268 1 53 1 53C1 53 13.6585 51.6667 17.9231 47.6667C20.3262 45.4268 20.2923 41.9868 17.6185 39.9068C16.3029 38.9175 14.5699 38.3459 12.7522 38.3016C10.9344 38.2573 9.15989 38.7435 7.76923 39.6668ZM33.1538 35.6669L23 27.667C24.8011 23.9855 27.069 20.4566 29.7692 17.1338C33.7129 12.1658 39.2043 8.07537 45.7209 5.25152C52.2376 2.42767 59.5629 0.964318 67 1.00066C67 8.2539 64.36 21.0004 46.6923 30.3336C42.4166 32.4627 37.8812 34.2494 33.1538 35.6669Z" stroke="#DDA15E" stroke-width="2" stroke-linecap="round" stroke-linejoin="round"/>
<path d="M23.0002 27.6672H6.07715C6.07715 27.6672 7.93869 19.5873 12.8464 17.0007C18.3295 14.1207 29.7695 17.0007 29.7695 17.0007M33.1541 35.6671V49.0003C33.1541 49.0003 43.4095 47.5336 46.6925 43.667C50.3479 39.3471 46.6925 30.3339 46.6925 30.3339" stroke="#DDA15E" stroke-width="2" stroke-linecap="round" stroke-linejoin="round"/>
</svg>
