<svg width="53" height="62" viewBox="0 0 53 62" fill="none" xmlns="http://www.w3.org/2000/svg">
<path d="M19.9211 1.5V7.71053M30.4474 1.5V7.71053M35.7105 20.1316C36.4085 20.1316 37.0778 20.4587 37.5713 21.0411C38.0649 21.6234 38.3421 22.4133 38.3421 23.2368V48.0789C38.3421 51.3732 37.2331 54.5326 35.259 56.862C33.285 59.1914 30.6075 60.5 27.8158 60.5H12.0263C9.23456 60.5 6.55715 59.1914 4.58309 56.862C2.60902 54.5326 1.5 51.3732 1.5 48.0789V23.2368C1.5 22.4133 1.77725 21.6234 2.27077 21.0411C2.76429 20.4587 3.43364 20.1316 4.13158 20.1316H40.9737C43.7654 20.1316 46.4428 21.4402 48.4169 23.7696C50.391 26.099 51.5 29.2584 51.5 32.5526C51.5 35.8469 50.391 39.0062 48.4169 41.3356C46.4428 43.665 43.7654 44.9737 40.9737 44.9737H38.3421M9.39474 1.5V7.71053" stroke="#DDA15E" stroke-width="3" stroke-linecap="round" stroke-linejoin="round"/>
</svg>
